<svg width="2235" height="282" viewBox="0 0 2235 282" fill="none" xmlns="http://www.w3.org/2000/svg">
<path d="M1265 39L1379.5 23M1265 39L1299.5 96.5313M1265 39L1004 115.5M1265 39L1043 73.5M1265 39L1016.5 46.8639M1379.5 23L1500 13.5M1379.5 23L1299.5 96.5313M1500 13.5L1609.75 10.25M1500 13.5L1504.75 55.625M1500 13.5L1399.75 101M1500 13.5L1299.5 96.5313M1939 0.5L1931.25 75.5M1939 0.5L1719.5 7M1939 0.5L1779.75 47M1939 0.5L1779.75 21M1939 0.5L1765.25 96.5313M1939 0.5L1854.5 75.5M1939 0.5H2037.75M2136.5 0.5L2233.5 13.5M2136.5 0.5L2078.5 82M2136.5 0.5L2030 75.5M2136.5 0.5L1931.25 75.5M2136.5 0.5H2037.75M2233.5 13.5L2191 57.5L1923.5 150.5M2233.5 13.5L2078.5 82M1923.5 150.5L2078.5 82M1923.5 150.5L2030 75.5M1923.5 150.5L1755.75 172.5M1923.5 150.5C1919.9 150.5 1876 100.5 1854.5 75.5M1923.5 150.5L1930.58 82M1588 194.5L1620.5 93.5M1588 194.5L1591.51 192.563M1588 194.5L1755.75 172.5M1588 194.5L1443.75 191.5M1299.5 188.5L964.5 233M1299.5 188.5L1443.75 191.5M1299.5 188.5L1509.5 97.75M1299.5 188.5L1399.75 101M1299.5 188.5V96.5313M964.5 233L1004 115.5M964.5 233L864.25 179.25M964.5 233L797 202M964.5 233L774 242M964.5 233L1132 164.766M583.5 251L797 202M583.5 251L774 242M583.5 251L343 233M583.5 251L292.25 266M583.5 251L546.125 156.966M583.5 251L437.875 208M583.5 251L627 220.755M1 281V180M1 281L172 257M1 281L292.25 266M1 79L292.25 165M1 79V180M1 79L172 206.5M1 79L127.938 74.983M2078.5 82L2030 75.5M2030 75.5H1931.25M1931.25 75.5H1854.5M1931.25 75.5L1930.58 82M1719.5 7L1646 51M1719.5 7L1779.75 21M1719.5 7L1609.75 10.25M1719.5 7L1614.5 52.375M1620.5 93.5L1779.75 21M1620.5 93.5L1646 51M1620.5 93.5L1700.12 70.25M1620.5 93.5L1665 114.5M1620.5 93.5L1443.75 191.5M1779.75 47V21M1779.75 47L1665 114.5M1779.75 47L1700.12 70.25M1779.75 47L1765.25 96.5313M1779.75 21L1646 51M1591.51 192.563L1665 114.5M1591.51 192.563L1765.25 96.5313M1665 114.5L1700.12 70.25M1665 114.5L1765.25 96.5313M1765.25 96.5313L1755.75 172.5M1765.25 96.5313L1854.5 75.5M1755.75 172.5C1763.35 162.1 1824.75 103.5 1854.5 75.5M1930.58 82L2037.75 0.5M1443.75 191.5L1509.5 97.75M1509.5 97.75L1504.75 55.625M1509.5 97.75L1614.5 52.375M1509.5 97.75L1609.75 10.25M1609.75 10.25L1504.75 55.625M1609.75 10.25L1614.5 52.375M1399.75 101L1299.5 96.5313M1299.5 96.5313L1004 115.5M1299.5 96.5313L1132 164.766M764 125.5L1004 115.5M764 125.5L1016.5 46.8639M764 125.5L797 202M764 125.5L864.25 179.25M764 125.5L546.125 156.966M764 125.5L824.9 88.25M764 125.5L636.375 94.216M764 125.5L695.5 173.127M1004 115.5L1043 73.5M1004 115.5L1016.5 46.8639M1004 115.5L864.25 179.25M1004 115.5L1132 164.766M1043 73.5L1016.5 46.8639M1016.5 46.8639L885.8 51M797 202L864.25 179.25M797 202L774 242M292.25 165L343 233M292.25 165L172 206.5M292.25 165L546.125 156.966M292.25 165L254.875 70.966M292.25 165L381.812 66.949M292.25 165L127.938 74.983M292.25 165L443.911 93.5M292.25 165L437.875 208M508.75 62.932L546.125 156.966M508.75 62.932L381.812 66.949M508.75 62.932L885.8 51M508.75 62.932L824.9 88.25M508.75 62.932L636.375 94.216M508.75 62.932L443.911 93.5M343 233L172 257M343 233L292.25 266M343 233L172 206.5M1 180L172 206.5M1 180L172 257M172 257L292.25 266M172 257V206.5M546.125 156.966L636.375 94.216M546.125 156.966L443.911 93.5M546.125 156.966L437.875 208M546.125 156.966L627 220.755M546.125 156.966L695.5 173.127M254.875 70.966L381.812 66.949M254.875 70.966L127.938 74.983M885.8 51L824.9 88.25M627 220.755L695.5 173.127" stroke="#B7A0A0"/>
</svg>
